<svg width="34" height="34" viewBox="0 0 34 34" fill="none" xmlns="http://www.w3.org/2000/svg">
<path d="M24.0135 11.9894L19.0048 16.998L24.0135 22.0067C24.2792 22.2724 24.4284 22.6327 24.4284 23.0085C24.4284 23.3842 24.2792 23.7445 24.0135 24.0102C23.7478 24.2759 23.3875 24.4251 23.0117 24.4251C22.636 24.4251 22.2757 24.2759 22.01 24.0102L17.0013 19.0015L11.9927 24.0102C11.727 24.2759 11.3666 24.4251 10.9909 24.4251C10.6152 24.4251 10.2549 24.2759 9.98919 24.0102C9.72352 23.7445 9.57426 23.3842 9.57426 23.0085C9.57426 22.6327 9.72352 22.2724 9.98919 22.0067L14.9979 16.998L9.98919 11.9894C9.72352 11.7237 9.57426 11.3634 9.57426 10.9876C9.57426 10.6119 9.72352 10.2516 9.98919 9.9859C10.2549 9.72023 10.6152 9.57097 10.9909 9.57097C11.3666 9.57097 11.727 9.72023 11.9927 9.9859L17.0013 14.9946L22.01 9.9859C22.2757 9.72023 22.636 9.57097 23.0117 9.57097C23.3875 9.57097 23.7478 9.72023 24.0135 9.9859C24.2792 10.2516 24.4284 10.6119 24.4284 10.9876C24.4284 11.3634 24.2792 11.7237 24.0135 11.9894Z" fill="currentColor"/>
</svg>
