<svg width="20" height="20" viewBox="0 0 20 20" fill="none" xmlns="http://www.w3.org/2000/svg">
<path d="M13.0305 14.7279L10 11.6975L6.96954 14.7279C6.8088 14.8887 6.59078 14.979 6.36345 14.979C6.13612 14.979 5.9181 14.8887 5.75736 14.7279C5.59661 14.5672 5.50631 14.3492 5.50631 14.1218C5.50631 13.8945 5.59661 13.6765 5.75736 13.5157L8.78782 10.4853L5.75736 7.45482C5.59661 7.29408 5.50631 7.07606 5.50631 6.84873C5.50631 6.6214 5.59661 6.40339 5.75736 6.24264C5.9181 6.0819 6.13612 5.99159 6.36345 5.99159C6.59078 5.99159 6.8088 6.0819 6.96954 6.24264L10 9.2731L13.0305 6.24264C13.1912 6.0819 13.4092 5.99159 13.6365 5.99159C13.8639 5.99159 14.0819 6.0819 14.2426 6.24264C14.4034 6.40339 14.4937 6.6214 14.4937 6.84873C14.4937 7.07606 14.4034 7.29408 14.2426 7.45482L11.2122 10.4853L14.2426 13.5157C14.4034 13.6765 14.4937 13.8945 14.4937 14.1218C14.4937 14.3492 14.4034 14.5672 14.2426 14.7279C14.0819 14.8887 13.8639 14.979 13.6365 14.979C13.4092 14.979 13.1912 14.8887 13.0305 14.7279Z" fill="currentColor"/>
<path d="M5.75736 14.7279C5.59661 14.5672 5.50631 14.3492 5.50631 14.1218C5.50631 13.8945 5.59661 13.6765 5.75736 13.5157L5.15127 14.1218L5.75736 14.7279Z" fill="currentColor"/>
<path d="M6.96954 14.7279C6.8088 14.8887 6.59078 14.979 6.36345 14.979C6.13612 14.979 5.9181 14.8887 5.75736 14.7279L6.36345 15.334L6.96954 14.7279Z" fill="currentColor"/>
<path d="M14.2426 14.7279C14.0819 14.8887 13.8639 14.979 13.6365 14.979C13.4092 14.979 13.1912 14.8887 13.0305 14.7279L13.6365 15.334L14.2426 14.7279Z" fill="currentColor"/>
<path d="M14.2426 13.5157C14.4034 13.6765 14.4937 13.8945 14.4937 14.1218C14.4937 14.3492 14.4034 14.5672 14.2426 14.7279L14.8487 14.1218L14.2426 13.5157Z" fill="currentColor"/>
<path d="M13.0305 6.24264C13.1912 6.0819 13.4092 5.99159 13.6365 5.99159C13.8639 5.99159 14.0819 6.0819 14.2426 6.24264L13.6365 5.63655L13.0305 6.24264Z" fill="currentColor"/>
<path d="M14.2426 6.24264C14.4034 6.40339 14.4937 6.6214 14.4937 6.84873C14.4937 7.07606 14.4034 7.29408 14.2426 7.45482L14.8487 6.84873L14.2426 6.24264Z" fill="currentColor"/>
<path d="M5.75736 7.45482C5.59661 7.29408 5.50631 7.07606 5.50631 6.84873C5.50631 6.6214 5.59661 6.40339 5.75736 6.24264L5.15127 6.84873L5.75736 7.45482Z" fill="currentColor"/>
<path d="M5.75736 6.24264C5.9181 6.0819 6.13612 5.99159 6.36345 5.99159C6.59078 5.99159 6.8088 6.0819 6.96954 6.24264L6.36345 5.63655L5.75736 6.24264Z" fill="currentColor"/>
</svg>
