<svg width="64" height="65" viewBox="0 0 64 65" fill="none" xmlns="http://www.w3.org/2000/svg">
<path d="M45.2034 23.0667L35.7754 32.4948L45.2034 41.9228C45.7035 42.4229 45.9845 43.1012 45.9845 43.8085C45.9845 44.5157 45.7035 45.194 45.2034 45.6941C44.7033 46.1942 44.0251 46.4751 43.3178 46.4751C42.6106 46.4751 41.9323 46.1942 41.4322 45.6941L32.0041 36.266L22.576 45.6941C22.0759 46.1942 21.3977 46.4751 20.6904 46.4751C19.9832 46.4751 19.3049 46.1942 18.8048 45.6941C18.3047 45.194 18.0237 44.5157 18.0237 43.8085C18.0237 43.1012 18.3047 42.4229 18.8048 41.9228L28.2329 32.4948L18.8048 23.0667C18.3047 22.5666 18.0237 21.8883 18.0237 21.181C18.0237 20.4738 18.3047 19.7955 18.8048 19.2954C19.3049 18.7953 19.9832 18.5144 20.6904 18.5144C21.3977 18.5144 22.0759 18.7953 22.576 19.2954L32.0041 28.7235L41.4322 19.2954C41.9323 18.7953 42.6106 18.5144 43.3178 18.5144C44.0251 18.5144 44.7033 18.7953 45.2034 19.2954C45.7035 19.7955 45.9845 20.4738 45.9845 21.181C45.9845 21.8883 45.7035 22.5666 45.2034 23.0667Z" fill="currentColor"/>
</svg>
