<svg width="16" height="16" viewBox="0 0 16 16" fill="none" xmlns="http://www.w3.org/2000/svg">
<path d="M14.6667 7.99967C14.6667 8.87515 14.4942 9.74206 14.1592 10.5509C13.8242 11.3597 13.3331 12.0947 12.7141 12.7137C12.095 13.3328 11.3601 13.8238 10.5512 14.1589C9.7424 14.4939 8.87549 14.6663 8.00001 14.6663C7.12453 14.6663 6.25762 14.4939 5.44879 14.1589C4.63995 13.8238 3.90502 13.3328 3.28596 12.7137C2.66691 12.0947 2.17584 11.3597 1.84081 10.5509C1.50578 9.74206 1.33334 8.87515 1.33334 7.99967C1.33334 7.1242 1.50578 6.25729 1.84081 5.44845C2.17585 4.63961 2.66691 3.90469 3.28597 3.28563C3.90502 2.66657 4.63995 2.17551 5.44879 1.84048C6.25763 1.50545 7.12453 1.33301 8.00001 1.33301C8.87549 1.33301 9.7424 1.50545 10.5512 1.84048C11.3601 2.17551 12.095 2.66657 12.7141 3.28563C13.3331 3.90469 13.8242 4.63962 14.1592 5.44845C14.4942 6.25729 14.6667 7.1242 14.6667 7.99968L14.6667 7.99967Z" stroke="currentColor" stroke-width="1.5"/>
<path d="M10.6667 7.99967C10.6667 8.87515 10.5977 9.74206 10.4637 10.5509C10.3297 11.3597 10.1333 12.0947 9.88563 12.7137C9.63801 13.3328 9.34403 13.8238 9.0205 14.1589C8.69696 14.4939 8.3502 14.6663 8.00001 14.6663C7.64982 14.6663 7.30306 14.4939 6.97952 14.1589C6.65599 13.8238 6.36201 13.3328 6.11439 12.7137C5.86677 12.0947 5.67034 11.3597 5.53633 10.5509C5.40232 9.74206 5.33334 8.87515 5.33334 7.99967C5.33334 7.1242 5.40232 6.25729 5.53633 5.44845C5.67034 4.63961 5.86677 3.90469 6.11439 3.28563C6.36202 2.66657 6.65599 2.17551 6.97952 1.84048C7.30306 1.50545 7.64982 1.33301 8.00001 1.33301C8.3502 1.33301 8.69696 1.50545 9.0205 1.84048C9.34403 2.17551 9.63801 2.66657 9.88563 3.28563C10.1333 3.90469 10.3297 4.63962 10.4637 5.44845C10.5977 6.25729 10.6667 7.1242 10.6667 7.99968L10.6667 7.99967Z" stroke="currentColor" stroke-width="1.5"/>
<path d="M1.33334 8H14.6667" stroke="currentColor" stroke-width="1.5" stroke-linecap="round"/>
</svg>
