<svg width="18" height="18" viewBox="0 0 18 18" fill="none" xmlns="http://www.w3.org/2000/svg">
<path d="M17.9997 9.23718C17.3195 13.0091 14.0423 15.6061 10.3941 15.6061C9.89945 15.6061 9.4666 15.5442 8.97192 15.4824C9.77577 14.6786 10.3941 13.7511 10.8269 12.8235C10.8269 12.7617 10.8888 12.6999 10.8888 12.6381C11.0743 12.267 11.198 11.896 11.3216 11.525C11.3835 11.4014 11.3835 11.2159 11.4453 11.0922C11.94 10.6594 12.4346 10.2883 12.9911 9.97918C14.537 9.23717 16.2683 8.92801 17.9997 9.23718Z" fill="currentColor" stroke="#E8EBFC" stroke-width="0.502319" stroke-miterlimit="10" stroke-linecap="round" stroke-linejoin="round"/>
<path d="M8.97199 15.4824C8.47732 15.5442 8.04449 15.6061 7.54982 15.6061C3.83977 15.6061 0.624389 13.0091 -0.0557861 9.23718C1.7374 8.92801 3.46876 9.23717 4.89094 9.97918C5.44745 10.2883 6.00395 10.6594 6.43679 11.0922C6.49863 11.2159 6.49863 11.4014 6.56047 11.525C6.68414 11.896 6.80781 12.267 6.93148 12.6381C6.93148 12.6999 6.99331 12.7617 6.99331 12.8235C7.54982 13.7511 8.16815 14.6786 8.97199 15.4824Z" fill="currentColor" stroke="#E8EBFC" stroke-width="0.502319" stroke-miterlimit="10" stroke-linecap="round" stroke-linejoin="round"/>
<path d="M11.6927 8.86625C11.6927 9.60826 11.6308 10.3503 11.4453 11.0923C11.3835 11.216 11.3835 11.4014 11.3217 11.5251C11.198 11.8961 11.0743 12.2671 10.8888 12.6381C10.8888 12.7 10.827 12.7618 10.827 12.8236C10.3942 13.813 9.71399 14.6786 8.97198 15.4825C8.16813 14.6786 7.54979 13.7511 7.11695 12.8236C7.11695 12.7618 7.05512 12.7 7.05512 12.6381C6.86961 12.2671 6.74596 11.8961 6.68413 11.5251C6.62229 11.4014 6.62229 11.216 6.56045 11.0923C6.12761 9.36093 6.25128 7.50591 6.80778 5.83639C7.24062 4.53787 7.98264 3.30118 9.03382 2.25C10.085 3.30118 10.827 4.53787 11.2598 5.83639C11.569 6.82573 11.6927 7.81507 11.6927 8.86625Z" fill="currentColor" stroke="#E8EBFC" stroke-width="0.502319" stroke-miterlimit="10" stroke-linecap="round" stroke-linejoin="round"/>
<path d="M14.9082 4.90918C14.9082 6.82604 14.228 8.61921 13.0532 9.97956C12.4967 10.2887 11.9402 10.6597 11.5073 11.0926C11.6928 10.3506 11.7547 9.60856 11.7547 8.86656C11.7547 7.81538 11.5692 6.82604 11.26 5.83669C12.3112 5.21835 13.5479 4.90918 14.9082 4.90918Z" fill="currentColor" stroke="#E8EBFC" stroke-width="0.502319" stroke-miterlimit="10" stroke-linecap="round" stroke-linejoin="round"/>
<path d="M6.49877 11.0926C6.0041 10.6597 5.50943 10.2887 4.95292 9.97956C3.77808 8.61921 3.0979 6.82604 3.0979 4.90918C4.39642 4.90918 5.69493 5.21835 6.74611 5.83669C6.12777 7.50621 6.06594 9.36123 6.49877 11.0926Z" fill="currentColor" stroke="#E8EBFC" stroke-width="0.502319" stroke-miterlimit="10" stroke-linecap="round" stroke-linejoin="round"/>
</svg>
