<svg width="18" height="18" viewBox="0 0 18 18" fill="none" xmlns="http://www.w3.org/2000/svg">
<path fill-rule="evenodd" clip-rule="evenodd" d="M15.2888 8.51663C15.1566 8.55238 15.0963 8.61438 14.8288 8.98969C14.1705 9.91339 13.3629 10.5881 12.3725 11.0419C11.4615 11.4593 10.5999 11.6278 9.58289 11.5876C8.50684 11.545 7.62553 11.2852 6.71843 10.7433C5.78175 10.1836 5.59962 10.1149 4.98709 10.0893C4.24439 10.0584 3.64055 10.2703 3.10165 10.7511C2.73322 11.0798 2.43065 11.5517 2.29161 12.0143C2.19824 12.3249 2.16062 12.8771 2.21122 13.1947C2.35625 14.1057 2.82555 14.7289 3.87317 15.4016C4.65935 15.9065 5.6062 16.2495 6.58981 16.3859C7.06548 16.4518 8.50993 16.4812 8.92865 16.4335C11.1837 16.1765 13.1161 15.0472 14.4183 13.2252C15.268 12.0363 15.7773 10.6106 15.8388 9.24865C15.8561 8.86648 15.852 8.81556 15.7979 8.73576C15.6717 8.54957 15.4769 8.46576 15.2888 8.51663Z" fill="currentColor"/>
<path d="M8.96008 3.225C8.47184 3.225 8.0036 3.39884 7.65836 3.70827C7.31313 4.01771 7.11917 4.43739 7.11917 4.875C7.11917 5.31261 7.31313 5.73229 7.65836 6.04173C8.0036 6.35116 8.47184 6.525 8.96008 6.525C9.44832 6.525 9.91657 6.35116 10.2618 6.04173C10.607 5.73229 10.801 5.31261 10.801 4.875C10.801 4.43739 10.607 4.01771 10.2618 3.70827C9.91657 3.39884 9.44832 3.225 8.96008 3.225ZM8.96008 7.625C8.14635 7.625 7.36595 7.33527 6.79055 6.81954C6.21516 6.30382 5.8919 5.60435 5.8919 4.875C5.8919 4.14565 6.21516 3.44618 6.79055 2.93046C7.36595 2.41473 8.14635 2.125 8.96008 2.125C9.77382 2.125 10.5542 2.41473 11.1296 2.93046C11.705 3.44618 12.0283 4.14565 12.0283 4.875C12.0283 5.60435 11.705 6.30382 11.1296 6.81954C10.5542 7.33527 9.77382 7.625 8.96008 7.625ZM8.96008 0.75C5.8919 0.75 3.27167 2.4605 2.21008 4.875C3.27167 7.2895 5.8919 9 8.96008 9C12.0283 9 14.6485 7.2895 15.7101 4.875C14.6485 2.4605 12.0283 0.75 8.96008 0.75Z" fill="currentColor"/>
</svg>
