<svg width="18" height="18" viewBox="0 0 18 18" fill="none" xmlns="http://www.w3.org/2000/svg">
<path d="M12.9577 14.2169L12.076 13.972L12.3209 14.8537C11.4391 15.6375 10.4104 16.1274 9.28366 16.1274C8.20594 16.1274 7.17719 15.6375 6.24643 14.8537L6.49137 13.972L5.6096 14.2169C3.99301 12.4533 2.91528 9.71003 2.91528 7.60357C2.91528 6.32989 3.30719 5.10521 3.99301 4.07647L5.56061 4.51735L5.11972 2.85178C6.24643 1.87203 7.71606 1.28418 9.33265 1.28418C10.9492 1.28418 12.4189 1.87203 13.5456 2.85178L13.1047 4.51735L14.6723 4.07647C15.3581 5.10521 15.75 6.2809 15.75 7.60357C15.652 9.71003 14.6233 12.4044 12.9577 14.2169Z" fill="currentColor" stroke="currentColor" stroke-width="0.85231" stroke-miterlimit="10" stroke-linecap="round" stroke-linejoin="round"/>
<path d="M6.63845 9.46634C7.53126 9.46634 8.25503 9.02769 8.25503 8.48659C8.25503 7.94549 7.53126 7.50684 6.63845 7.50684C5.74563 7.50684 5.02185 7.94549 5.02185 8.48659C5.02185 9.02769 5.74563 9.46634 6.63845 9.46634Z" fill="#E8EBFC" stroke="#E8EBFC" stroke-width="0.85231" stroke-miterlimit="10" stroke-linecap="round" stroke-linejoin="round"/>
<path d="M11.9783 9.46634C12.8711 9.46634 13.5949 9.02769 13.5949 8.48659C13.5949 7.94549 12.8711 7.50684 11.9783 7.50684C11.0855 7.50684 10.3617 7.94549 10.3617 8.48659C10.3617 9.02769 11.0855 9.46634 11.9783 9.46634Z" fill="#E8EBFC" stroke="#E8EBFC" stroke-width="0.85231" stroke-miterlimit="10" stroke-linecap="round" stroke-linejoin="round"/>
<path d="M9.28383 13.3362C10.0955 13.3362 10.7535 13.0511 10.7535 12.6993C10.7535 12.3476 10.0955 12.0625 9.28383 12.0625C8.47218 12.0625 7.81421 12.3476 7.81421 12.6993C7.81421 13.0511 8.47218 13.3362 9.28383 13.3362Z" fill="#E8EBFC" stroke="#E8EBFC" stroke-width="0.85231" stroke-miterlimit="10" stroke-linecap="round" stroke-linejoin="round"/>
</svg>
