<svg width="20" height="20" viewBox="0 0 20 20" fill="none" xmlns="http://www.w3.org/2000/svg">
<path d="M9.99935 14.1667C10.2355 14.1667 10.4335 14.0867 10.5935 13.9267C10.7535 13.7667 10.8332 13.569 10.8327 13.3334V10.0001C10.8327 9.76397 10.7527 9.56619 10.5927 9.40675C10.4327 9.2473 10.2349 9.1673 9.99935 9.16675C9.76379 9.16619 9.56602 9.24619 9.40602 9.40675C9.24602 9.5673 9.16602 9.76508 9.16602 10.0001V13.3334C9.16602 13.5695 9.24602 13.7676 9.40602 13.9276C9.56602 14.0876 9.76379 14.1673 9.99935 14.1667ZM9.99935 7.50008C10.2355 7.50008 10.4335 7.42008 10.5935 7.26008C10.7535 7.10008 10.8332 6.9023 10.8327 6.66675C10.8321 6.43119 10.7521 6.23342 10.5927 6.07342C10.4332 5.91342 10.2355 5.83341 9.99935 5.83341C9.76324 5.83341 9.56546 5.91342 9.40602 6.07342C9.24657 6.23342 9.16657 6.43119 9.16602 6.66675C9.16546 6.9023 9.24546 7.10036 9.40602 7.26092C9.56657 7.42147 9.76435 7.50119 9.99935 7.50008ZM9.99935 18.3334C8.84657 18.3334 7.76324 18.1145 6.74935 17.6767C5.73546 17.239 4.85352 16.6454 4.10352 15.8959C3.35352 15.1465 2.75991 14.2645 2.32268 13.2501C1.88546 12.2356 1.66657 11.1523 1.66602 10.0001C1.66546 8.84786 1.88435 7.76453 2.32268 6.75008C2.76102 5.73564 3.35463 4.85369 4.10352 4.10425C4.85241 3.3548 5.73435 2.76119 6.74935 2.32341C7.76435 1.88564 8.84768 1.66675 9.99935 1.66675C11.151 1.66675 12.2343 1.88564 13.2493 2.32341C14.2643 2.76119 15.1463 3.3548 15.8952 4.10425C16.6441 4.85369 17.238 5.73564 17.6768 6.75008C18.1157 7.76453 18.3344 8.84786 18.3327 10.0001C18.331 11.1523 18.1121 12.2356 17.676 13.2501C17.2399 14.2645 16.6463 15.1465 15.8952 15.8959C15.1441 16.6454 14.2621 17.2392 13.2493 17.6776C12.2366 18.1159 11.1532 18.3345 9.99935 18.3334ZM9.99935 16.6667C11.8605 16.6667 13.4368 16.0209 14.7285 14.7292C16.0202 13.4376 16.666 11.8612 16.666 10.0001C16.666 8.13897 16.0202 6.56258 14.7285 5.27091C13.4368 3.97925 11.8605 3.33341 9.99935 3.33341C8.13824 3.33341 6.56185 3.97925 5.27018 5.27091C3.97852 6.56258 3.33268 8.13897 3.33268 10.0001C3.33268 11.8612 3.97852 13.4376 5.27018 14.7292C6.56185 16.0209 8.13824 16.6667 9.99935 16.6667Z" fill="currentColor"/>
</svg>
