<svg width="30" height="30" viewBox="0 0 30 30" fill="none" xmlns="http://www.w3.org/2000/svg">
<g id="Logo Container">
<g id="Vector">
<path d="M29 28.4286C29 28.6979 29 28.8326 28.9163 28.9163C28.8326 29 28.6979 29 28.4286 29H23.851C23.5816 29 23.4469 29 23.3633 28.9163C23.2796 28.8326 23.2796 28.6979 23.2796 28.4286V26.2905C20.9607 27.9938 18.0978 29 15 29C7.26801 29 1 22.732 1 15C1 8.17824 5.87911 2.49606 12.338 1.25276C12.5404 1.2138 12.6416 1.19432 12.7239 1.23118C12.7699 1.25178 12.8121 1.28668 12.8411 1.32793C12.8928 1.40176 12.8928 1.50791 12.8928 1.7202C12.8928 1.90572 12.8928 1.99848 12.9343 2.06679C12.9581 2.10607 12.991 2.13903 13.0303 2.16286C13.0986 2.2043 13.1914 2.2043 13.3769 2.2043H13.4197C13.646 2.2043 13.7592 2.2043 13.8367 2.26482C13.8551 2.27919 13.8717 2.29577 13.8861 2.31418C13.9466 2.39168 13.9466 2.50485 13.9466 2.73118V6.48797C13.9466 6.72325 13.9466 6.84089 13.8813 6.92005C13.816 6.99921 13.6943 7.02284 13.4509 7.07012C9.73051 7.79265 6.92175 11.0683 6.92175 15C6.92175 19.4615 10.5385 23.0783 15 23.0783C19.4615 23.0783 23.0783 19.4615 23.0783 15C23.0783 11.1676 20.4095 7.95844 16.829 7.12968C16.5959 7.07571 16.4793 7.04873 16.4172 6.97066C16.3552 6.8926 16.3552 6.77904 16.3552 6.55192L16.3552 2.73118C16.3552 2.50485 16.3552 2.39168 16.4157 2.31418C16.4301 2.29577 16.4466 2.27919 16.465 2.26482C16.5426 2.2043 16.6557 2.2043 16.8821 2.2043H16.953C17.1119 2.2043 17.1913 2.2043 17.2521 2.17358C17.3065 2.14607 17.3507 2.10189 17.3782 2.04748C17.4089 1.9867 17.4089 1.90724 17.4089 1.74833C17.4089 1.56363 17.4089 1.47128 17.4482 1.40431C17.4826 1.34587 17.5404 1.29907 17.6047 1.27774C17.6784 1.2533 17.7659 1.27201 17.9409 1.30942C19.9047 1.72923 21.7158 2.56085 23.2796 3.70952V1.57143C23.2796 1.30205 23.2796 1.16737 23.3633 1.08368C23.4469 1 23.5816 1 23.851 1H28.4286C28.6979 1 28.8326 1 28.9163 1.08368C29 1.16737 29 1.30205 29 1.57143V28.4286Z" fill="#1F1F21"/>
<path d="M7.62879 15.9443C8.08281 19.6111 11.21 22.4285 15.0005 22.4285C18.4033 22.4285 21.2718 20.1405 22.1514 17.019C22.2327 16.7302 21.7144 16.4326 21.4318 16.5334C19.9423 17.0647 17.4582 16.6202 16.429 16.2857C15.8048 16.0828 15.2045 15.9167 14.6307 15.7822C11.2442 14.9881 8.81131 15.3143 7.80031 15.6623C7.68283 15.7027 7.61352 15.821 7.62879 15.9443Z" fill="#1F1F21"/>
</g>
</g>
</svg>
