<svg width="0" height="0" class="hidden">
  <symbol fill="none" xmlns="http://www.w3.org/2000/svg" viewBox="0 0 13 13" id="ic_back_arrow">
    <path d="M2.72177 6.29431L6.20484 2.81124L5.39359 2L0.525563 6.86803L0.931185 7.27365L5.39359 11.7361L6.20484 10.9248L2.72177 7.44175L12 7.44175L12 6.29431L2.72177 6.29431Z" fill="currentColor"></path>
  </symbol>
  <symbol fill="none" xmlns="http://www.w3.org/2000/svg" viewBox="0 0 24 24" id="ic_cart">
    <path d="M3.86327 16.4552C3.00532 13.0234 2.57635 11.3075 3.47718 10.1538C4.37801 9 6.14672 9 9.68413 9H14.3148C17.8522 9 19.6209 9 20.5218 10.1538C21.4226 11.3075 20.9936 13.0234 20.1357 16.4552C19.59 18.6379 19.3172 19.7292 18.5034 20.3646C17.6896 21 16.5647 21 14.3148 21H9.68413C7.43427 21 6.30935 21 5.49556 20.3646C4.68178 19.7292 4.40894 18.6379 3.86327 16.4552Z" stroke="currentColor" stroke-width="1.5"></path>
    <path d="M19.5 9.5L18.7896 6.89465C18.5157 5.89005 18.3787 5.38775 18.0978 5.00946C17.818 4.63273 17.4378 4.34234 17.0008 4.17152C16.5619 4 16.0413 4 15 4M4.5 9.5L5.2104 6.89465C5.48432 5.89005 5.62128 5.38775 5.90221 5.00946C6.18199 4.63273 6.56216 4.34234 6.99922 4.17152C7.43808 4 7.95872 4 9 4" stroke="currentColor" stroke-width="1.5"></path>
    <path d="M9 4C9 3.44772 9.44772 3 10 3H14C14.5523 3 15 3.44772 15 4C15 4.55228 14.5523 5 14 5H10C9.44772 5 9 4.55228 9 4Z" stroke="currentColor" stroke-width="1.5"></path>
  </symbol>
  <symbol fill="none" xmlns="http://www.w3.org/2000/svg" viewBox="0 0 18 18" id="ic_check">
    <path d="M3.2 8.2L7.7 13L15.2 5" stroke="currentColor" stroke-width="2" stroke-linecap="round" stroke-linejoin="round"></path>
  </symbol>
  <symbol fill="none" xmlns="http://www.w3.org/2000/svg" viewBox="0 0 34 34" id="ic_close">
    <path d="M24.0135 11.9894L19.0048 16.998L24.0135 22.0067C24.2792 22.2724 24.4284 22.6327 24.4284 23.0085C24.4284 23.3842 24.2792 23.7445 24.0135 24.0102C23.7478 24.2759 23.3875 24.4251 23.0117 24.4251C22.636 24.4251 22.2757 24.2759 22.01 24.0102L17.0013 19.0015L11.9927 24.0102C11.727 24.2759 11.3666 24.4251 10.9909 24.4251C10.6152 24.4251 10.2549 24.2759 9.98919 24.0102C9.72352 23.7445 9.57426 23.3842 9.57426 23.0085C9.57426 22.6327 9.72352 22.2724 9.98919 22.0067L14.9979 16.998L9.98919 11.9894C9.72352 11.7237 9.57426 11.3634 9.57426 10.9876C9.57426 10.6119 9.72352 10.2516 9.98919 9.9859C10.2549 9.72023 10.6152 9.57097 10.9909 9.57097C11.3666 9.57097 11.727 9.72023 11.9927 9.9859L17.0013 14.9946L22.01 9.9859C22.2757 9.72023 22.636 9.57097 23.0117 9.57097C23.3875 9.57097 23.7478 9.72023 24.0135 9.9859C24.2792 10.2516 24.4284 10.6119 24.4284 10.9876C24.4284 11.3634 24.2792 11.7237 24.0135 11.9894Z" fill="currentColor"></path>
  </symbol>
  <symbol fill="none" xmlns="http://www.w3.org/2000/svg" viewBox="0 0 64 65" id="ic_error_page_sep">
    <path d="M45.2034 23.0667L35.7754 32.4948L45.2034 41.9228C45.7035 42.4229 45.9845 43.1012 45.9845 43.8085C45.9845 44.5157 45.7035 45.194 45.2034 45.6941C44.7033 46.1942 44.0251 46.4751 43.3178 46.4751C42.6106 46.4751 41.9323 46.1942 41.4322 45.6941L32.0041 36.266L22.576 45.6941C22.0759 46.1942 21.3977 46.4751 20.6904 46.4751C19.9832 46.4751 19.3049 46.1942 18.8048 45.6941C18.3047 45.194 18.0237 44.5157 18.0237 43.8085C18.0237 43.1012 18.3047 42.4229 18.8048 41.9228L28.2329 32.4948L18.8048 23.0667C18.3047 22.5666 18.0237 21.8883 18.0237 21.181C18.0237 20.4738 18.3047 19.7955 18.8048 19.2954C19.3049 18.7953 19.9832 18.5144 20.6904 18.5144C21.3977 18.5144 22.0759 18.7953 22.576 19.2954L32.0041 28.7235L41.4322 19.2954C41.9323 18.7953 42.6106 18.5144 43.3178 18.5144C44.0251 18.5144 44.7033 18.7953 45.2034 19.2954C45.7035 19.7955 45.9845 20.4738 45.9845 21.181C45.9845 21.8883 45.7035 22.5666 45.2034 23.0667Z" fill="currentColor"></path>
  </symbol>
  <symbol fill="none" xmlns="http://www.w3.org/2000/svg" viewBox="0 0 20 20" id="ic_delete">
    <path d="M13.0305 14.7279L10 11.6975L6.96954 14.7279C6.8088 14.8887 6.59078 14.979 6.36345 14.979C6.13612 14.979 5.9181 14.8887 5.75736 14.7279C5.59661 14.5672 5.50631 14.3492 5.50631 14.1218C5.50631 13.8945 5.59661 13.6765 5.75736 13.5157L8.78782 10.4853L5.75736 7.45482C5.59661 7.29408 5.50631 7.07606 5.50631 6.84873C5.50631 6.6214 5.59661 6.40339 5.75736 6.24264C5.9181 6.0819 6.13612 5.99159 6.36345 5.99159C6.59078 5.99159 6.8088 6.0819 6.96954 6.24264L10 9.2731L13.0305 6.24264C13.1912 6.0819 13.4092 5.99159 13.6365 5.99159C13.8639 5.99159 14.0819 6.0819 14.2426 6.24264C14.4034 6.40339 14.4937 6.6214 14.4937 6.84873C14.4937 7.07606 14.4034 7.29408 14.2426 7.45482L11.2122 10.4853L14.2426 13.5157C14.4034 13.6765 14.4937 13.8945 14.4937 14.1218C14.4937 14.3492 14.4034 14.5672 14.2426 14.7279C14.0819 14.8887 13.8639 14.979 13.6365 14.979C13.4092 14.979 13.1912 14.8887 13.0305 14.7279Z" fill="currentColor"></path>
    <path d="M5.75736 14.7279C5.59661 14.5672 5.50631 14.3492 5.50631 14.1218C5.50631 13.8945 5.59661 13.6765 5.75736 13.5157L5.15127 14.1218L5.75736 14.7279Z" fill="currentColor"></path>
    <path d="M6.96954 14.7279C6.8088 14.8887 6.59078 14.979 6.36345 14.979C6.13612 14.979 5.9181 14.8887 5.75736 14.7279L6.36345 15.334L6.96954 14.7279Z" fill="currentColor"></path>
    <path d="M14.2426 14.7279C14.0819 14.8887 13.8639 14.979 13.6365 14.979C13.4092 14.979 13.1912 14.8887 13.0305 14.7279L13.6365 15.334L14.2426 14.7279Z" fill="currentColor"></path>
    <path d="M14.2426 13.5157C14.4034 13.6765 14.4937 13.8945 14.4937 14.1218C14.4937 14.3492 14.4034 14.5672 14.2426 14.7279L14.8487 14.1218L14.2426 13.5157Z" fill="currentColor"></path>
    <path d="M13.0305 6.24264C13.1912 6.0819 13.4092 5.99159 13.6365 5.99159C13.8639 5.99159 14.0819 6.0819 14.2426 6.24264L13.6365 5.63655L13.0305 6.24264Z" fill="currentColor"></path>
    <path d="M14.2426 6.24264C14.4034 6.40339 14.4937 6.6214 14.4937 6.84873C14.4937 7.07606 14.4034 7.29408 14.2426 7.45482L14.8487 6.84873L14.2426 6.24264Z" fill="currentColor"></path>
    <path d="M5.75736 7.45482C5.59661 7.29408 5.50631 7.07606 5.50631 6.84873C5.50631 6.6214 5.59661 6.40339 5.75736 6.24264L5.15127 6.84873L5.75736 7.45482Z" fill="currentColor"></path>
    <path d="M5.75736 6.24264C5.9181 6.0819 6.13612 5.99159 6.36345 5.99159C6.59078 5.99159 6.8088 6.0819 6.96954 6.24264L6.36345 5.63655L5.75736 6.24264Z" fill="currentColor"></path>
  </symbol>
  <symbol fill="none" xmlns="http://www.w3.org/2000/svg" viewBox="0 0 24 24" id="ic_filter">
    <path d="M20 7L4 7" stroke="currentColor" stroke-width="2" stroke-linecap="round"></path>
    <path d="M15 12L4 12" stroke="currentColor" stroke-width="2" stroke-linecap="round"></path>
    <path d="M9 17H4" stroke="currentColor" stroke-width="2" stroke-linecap="round"></path>
  </symbol>
  <symbol fill="none" xmlns="http://www.w3.org/2000/svg" viewBox="0 0 20 21" id="ic_link_arrow">
    <path d="M14.0313 7.34505L14.0313 14.5248L15.7035 14.5248L15.7035 4.49019L14.8674 4.4902L5.66892 4.4902L5.66892 6.16243L12.8486 6.16243L3.28593 15.7251L4.46855 16.9078L14.0313 7.34505Z" fill="currentColor"></path>
  </symbol>
  <symbol fill="none" xmlns="http://www.w3.org/2000/svg" viewBox="0 0 16 16" id="ic_globe">
    <path d="M14.6667 7.99967C14.6667 8.87515 14.4942 9.74206 14.1592 10.5509C13.8242 11.3597 13.3331 12.0947 12.7141 12.7137C12.095 13.3328 11.3601 13.8238 10.5512 14.1589C9.7424 14.4939 8.87549 14.6663 8.00001 14.6663C7.12453 14.6663 6.25762 14.4939 5.44879 14.1589C4.63995 13.8238 3.90502 13.3328 3.28596 12.7137C2.66691 12.0947 2.17584 11.3597 1.84081 10.5509C1.50578 9.74206 1.33334 8.87515 1.33334 7.99967C1.33334 7.1242 1.50578 6.25729 1.84081 5.44845C2.17585 4.63961 2.66691 3.90469 3.28597 3.28563C3.90502 2.66657 4.63995 2.17551 5.44879 1.84048C6.25763 1.50545 7.12453 1.33301 8.00001 1.33301C8.87549 1.33301 9.7424 1.50545 10.5512 1.84048C11.3601 2.17551 12.095 2.66657 12.7141 3.28563C13.3331 3.90469 13.8242 4.63962 14.1592 5.44845C14.4942 6.25729 14.6667 7.1242 14.6667 7.99968L14.6667 7.99967Z" stroke="currentColor" stroke-width="1.5"></path>
    <path d="M10.6667 7.99967C10.6667 8.87515 10.5977 9.74206 10.4637 10.5509C10.3297 11.3597 10.1333 12.0947 9.88563 12.7137C9.63801 13.3328 9.34403 13.8238 9.0205 14.1589C8.69696 14.4939 8.3502 14.6663 8.00001 14.6663C7.64982 14.6663 7.30306 14.4939 6.97952 14.1589C6.65599 13.8238 6.36201 13.3328 6.11439 12.7137C5.86677 12.0947 5.67034 11.3597 5.53633 10.5509C5.40232 9.74206 5.33334 8.87515 5.33334 7.99967C5.33334 7.1242 5.40232 6.25729 5.53633 5.44845C5.67034 4.63961 5.86677 3.90469 6.11439 3.28563C6.36202 2.66657 6.65599 2.17551 6.97952 1.84048C7.30306 1.50545 7.64982 1.33301 8.00001 1.33301C8.3502 1.33301 8.69696 1.50545 9.0205 1.84048C9.34403 2.17551 9.63801 2.66657 9.88563 3.28563C10.1333 3.90469 10.3297 4.63962 10.4637 5.44845C10.5977 6.25729 10.6667 7.1242 10.6667 7.99968L10.6667 7.99967Z" stroke="currentColor" stroke-width="1.5"></path>
    <path d="M1.33334 8H14.6667" stroke="currentColor" stroke-width="1.5" stroke-linecap="round"></path>
  </symbol>
  <symbol fill="none" xmlns="http://www.w3.org/2000/svg" viewBox="0 0 24 24" id="ic_menu">
    <path d="M1.80078 12L22.2008 12" stroke="currentColor" stroke-width="2.83333" stroke-linecap="round"></path>
    <path d="M1.80078 4.85938L12.0008 4.85938" stroke="currentColor" stroke-width="2.83333" stroke-linecap="round"></path>
    <path d="M12 19.1406H22.2" stroke="currentColor" stroke-width="2.83333" stroke-linecap="round"></path>
  </symbol>
  <symbol fill="none" xmlns="http://www.w3.org/2000/svg" viewBox="0 0 24 24" id="ic_menu_close">
    <path d="M6 17.998L18 5.99805" stroke="currentColor" stroke-width="3.33519" stroke-linecap="round"></path>
    <path d="M6.34277 6.3418L12.3428 12.3418" stroke="currentColor" stroke-width="3.33519" stroke-linecap="round"></path>
    <path d="M12 12L18 18" stroke="currentColor" stroke-width="3.33519" stroke-linecap="round"></path>
  </symbol>
  <symbol fill="none" xmlns="http://www.w3.org/2000/svg" viewBox="0 0 18 18" id="ic_product_tag1">
    <path d="M17.9997 9.23718C17.3195 13.0091 14.0423 15.6061 10.3941 15.6061C9.89945 15.6061 9.4666 15.5442 8.97192 15.4824C9.77577 14.6786 10.3941 13.7511 10.8269 12.8235C10.8269 12.7617 10.8888 12.6999 10.8888 12.6381C11.0743 12.267 11.198 11.896 11.3216 11.525C11.3835 11.4014 11.3835 11.2159 11.4453 11.0922C11.94 10.6594 12.4346 10.2883 12.9911 9.97918C14.537 9.23717 16.2683 8.92801 17.9997 9.23718Z" fill="currentColor" stroke="#E8EBFC" stroke-width="0.502319" stroke-miterlimit="10" stroke-linecap="round" stroke-linejoin="round"></path>
    <path d="M8.97199 15.4824C8.47732 15.5442 8.04449 15.6061 7.54982 15.6061C3.83977 15.6061 0.624389 13.0091 -0.0557861 9.23718C1.7374 8.92801 3.46876 9.23717 4.89094 9.97918C5.44745 10.2883 6.00395 10.6594 6.43679 11.0922C6.49863 11.2159 6.49863 11.4014 6.56047 11.525C6.68414 11.896 6.80781 12.267 6.93148 12.6381C6.93148 12.6999 6.99331 12.7617 6.99331 12.8235C7.54982 13.7511 8.16815 14.6786 8.97199 15.4824Z" fill="currentColor" stroke="#E8EBFC" stroke-width="0.502319" stroke-miterlimit="10" stroke-linecap="round" stroke-linejoin="round"></path>
    <path d="M11.6927 8.86625C11.6927 9.60826 11.6308 10.3503 11.4453 11.0923C11.3835 11.216 11.3835 11.4014 11.3217 11.5251C11.198 11.8961 11.0743 12.2671 10.8888 12.6381C10.8888 12.7 10.827 12.7618 10.827 12.8236C10.3942 13.813 9.71399 14.6786 8.97198 15.4825C8.16813 14.6786 7.54979 13.7511 7.11695 12.8236C7.11695 12.7618 7.05512 12.7 7.05512 12.6381C6.86961 12.2671 6.74596 11.8961 6.68413 11.5251C6.62229 11.4014 6.62229 11.216 6.56045 11.0923C6.12761 9.36093 6.25128 7.50591 6.80778 5.83639C7.24062 4.53787 7.98264 3.30118 9.03382 2.25C10.085 3.30118 10.827 4.53787 11.2598 5.83639C11.569 6.82573 11.6927 7.81507 11.6927 8.86625Z" fill="currentColor" stroke="#E8EBFC" stroke-width="0.502319" stroke-miterlimit="10" stroke-linecap="round" stroke-linejoin="round"></path>
    <path d="M14.9082 4.90918C14.9082 6.82604 14.228 8.61921 13.0532 9.97956C12.4967 10.2887 11.9402 10.6597 11.5073 11.0926C11.6928 10.3506 11.7547 9.60856 11.7547 8.86656C11.7547 7.81538 11.5692 6.82604 11.26 5.83669C12.3112 5.21835 13.5479 4.90918 14.9082 4.90918Z" fill="currentColor" stroke="#E8EBFC" stroke-width="0.502319" stroke-miterlimit="10" stroke-linecap="round" stroke-linejoin="round"></path>
    <path d="M6.49877 11.0926C6.0041 10.6597 5.50943 10.2887 4.95292 9.97956C3.77808 8.61921 3.0979 6.82604 3.0979 4.90918C4.39642 4.90918 5.69493 5.21835 6.74611 5.83669C6.12777 7.50621 6.06594 9.36123 6.49877 11.0926Z" fill="currentColor" stroke="#E8EBFC" stroke-width="0.502319" stroke-miterlimit="10" stroke-linecap="round" stroke-linejoin="round"></path>
  </symbol>
  <symbol fill="none" xmlns="http://www.w3.org/2000/svg" viewBox="0 0 18 18" id="ic_product_tag2">
    <path fill-rule="evenodd" clip-rule="evenodd" d="M15.2888 8.51663C15.1566 8.55238 15.0963 8.61438 14.8288 8.98969C14.1705 9.91339 13.3629 10.5881 12.3725 11.0419C11.4615 11.4593 10.5999 11.6278 9.58289 11.5876C8.50684 11.545 7.62553 11.2852 6.71843 10.7433C5.78175 10.1836 5.59962 10.1149 4.98709 10.0893C4.24439 10.0584 3.64055 10.2703 3.10165 10.7511C2.73322 11.0798 2.43065 11.5517 2.29161 12.0143C2.19824 12.3249 2.16062 12.8771 2.21122 13.1947C2.35625 14.1057 2.82555 14.7289 3.87317 15.4016C4.65935 15.9065 5.6062 16.2495 6.58981 16.3859C7.06548 16.4518 8.50993 16.4812 8.92865 16.4335C11.1837 16.1765 13.1161 15.0472 14.4183 13.2252C15.268 12.0363 15.7773 10.6106 15.8388 9.24865C15.8561 8.86648 15.852 8.81556 15.7979 8.73576C15.6717 8.54957 15.4769 8.46576 15.2888 8.51663Z" fill="currentColor"></path>
    <path d="M8.96008 3.225C8.47184 3.225 8.0036 3.39884 7.65836 3.70827C7.31313 4.01771 7.11917 4.43739 7.11917 4.875C7.11917 5.31261 7.31313 5.73229 7.65836 6.04173C8.0036 6.35116 8.47184 6.525 8.96008 6.525C9.44832 6.525 9.91657 6.35116 10.2618 6.04173C10.607 5.73229 10.801 5.31261 10.801 4.875C10.801 4.43739 10.607 4.01771 10.2618 3.70827C9.91657 3.39884 9.44832 3.225 8.96008 3.225ZM8.96008 7.625C8.14635 7.625 7.36595 7.33527 6.79055 6.81954C6.21516 6.30382 5.8919 5.60435 5.8919 4.875C5.8919 4.14565 6.21516 3.44618 6.79055 2.93046C7.36595 2.41473 8.14635 2.125 8.96008 2.125C9.77382 2.125 10.5542 2.41473 11.1296 2.93046C11.705 3.44618 12.0283 4.14565 12.0283 4.875C12.0283 5.60435 11.705 6.30382 11.1296 6.81954C10.5542 7.33527 9.77382 7.625 8.96008 7.625ZM8.96008 0.75C5.8919 0.75 3.27167 2.4605 2.21008 4.875C3.27167 7.2895 5.8919 9 8.96008 9C12.0283 9 14.6485 7.2895 15.7101 4.875C14.6485 2.4605 12.0283 0.75 8.96008 0.75Z" fill="currentColor"></path>
  </symbol>
  <symbol fill="none" xmlns="http://www.w3.org/2000/svg" viewBox="0 0 18 18" id="ic_product_tag3">
    <path d="M12.9577 14.2169L12.076 13.972L12.3209 14.8537C11.4391 15.6375 10.4104 16.1274 9.28366 16.1274C8.20594 16.1274 7.17719 15.6375 6.24643 14.8537L6.49137 13.972L5.6096 14.2169C3.99301 12.4533 2.91528 9.71003 2.91528 7.60357C2.91528 6.32989 3.30719 5.10521 3.99301 4.07647L5.56061 4.51735L5.11972 2.85178C6.24643 1.87203 7.71606 1.28418 9.33265 1.28418C10.9492 1.28418 12.4189 1.87203 13.5456 2.85178L13.1047 4.51735L14.6723 4.07647C15.3581 5.10521 15.75 6.2809 15.75 7.60357C15.652 9.71003 14.6233 12.4044 12.9577 14.2169Z" fill="currentColor" stroke="currentColor" stroke-width="0.85231" stroke-miterlimit="10" stroke-linecap="round" stroke-linejoin="round"></path>
    <path d="M6.63845 9.46634C7.53126 9.46634 8.25503 9.02769 8.25503 8.48659C8.25503 7.94549 7.53126 7.50684 6.63845 7.50684C5.74563 7.50684 5.02185 7.94549 5.02185 8.48659C5.02185 9.02769 5.74563 9.46634 6.63845 9.46634Z" fill="#E8EBFC" stroke="#E8EBFC" stroke-width="0.85231" stroke-miterlimit="10" stroke-linecap="round" stroke-linejoin="round"></path>
    <path d="M11.9783 9.46634C12.8711 9.46634 13.5949 9.02769 13.5949 8.48659C13.5949 7.94549 12.8711 7.50684 11.9783 7.50684C11.0855 7.50684 10.3617 7.94549 10.3617 8.48659C10.3617 9.02769 11.0855 9.46634 11.9783 9.46634Z" fill="#E8EBFC" stroke="#E8EBFC" stroke-width="0.85231" stroke-miterlimit="10" stroke-linecap="round" stroke-linejoin="round"></path>
    <path d="M9.28383 13.3362C10.0955 13.3362 10.7535 13.0511 10.7535 12.6993C10.7535 12.3476 10.0955 12.0625 9.28383 12.0625C8.47218 12.0625 7.81421 12.3476 7.81421 12.6993C7.81421 13.0511 8.47218 13.3362 9.28383 13.3362Z" fill="#E8EBFC" stroke="#E8EBFC" stroke-width="0.85231" stroke-miterlimit="10" stroke-linecap="round" stroke-linejoin="round"></path>
  </symbol>
  <symbol fill="none" xmlns="http://www.w3.org/2000/svg" viewBox="0 0 24 24" id="ic_reset">
    <path d="M5 19L18.9999 5.00005" stroke="currentColor" stroke-width="2" stroke-linecap="square"></path>
    <path d="M5.39844 5.39844L12.3984 12.3984" stroke="currentColor" stroke-width="2" stroke-linecap="square"></path>
    <path d="M12 12L19 19" stroke="currentColor" stroke-width="2" stroke-linecap="square"></path>
  </symbol>
  <symbol fill="none" xmlns="http://www.w3.org/2000/svg" viewBox="0 0 24 25" id="ic_slider_arrow">
    <path d="M6.83912 11.8512L11.4043 7.28594L10.3411 6.22266L3.96058 12.6031L4.49222 13.1348L10.3411 18.9836L11.4043 17.9203L6.83912 13.3551L19 13.3551L19 11.8512L6.83912 11.8512Z" fill="currentColor"></path>
  </symbol>
  <symbol fill="none" xmlns="http://www.w3.org/2000/svg" viewBox="0 0 20 20" id="ic_tooltip">
    <path d="M9.99935 14.1667C10.2355 14.1667 10.4335 14.0867 10.5935 13.9267C10.7535 13.7667 10.8332 13.569 10.8327 13.3334V10.0001C10.8327 9.76397 10.7527 9.56619 10.5927 9.40675C10.4327 9.2473 10.2349 9.1673 9.99935 9.16675C9.76379 9.16619 9.56602 9.24619 9.40602 9.40675C9.24602 9.5673 9.16602 9.76508 9.16602 10.0001V13.3334C9.16602 13.5695 9.24602 13.7676 9.40602 13.9276C9.56602 14.0876 9.76379 14.1673 9.99935 14.1667ZM9.99935 7.50008C10.2355 7.50008 10.4335 7.42008 10.5935 7.26008C10.7535 7.10008 10.8332 6.9023 10.8327 6.66675C10.8321 6.43119 10.7521 6.23342 10.5927 6.07342C10.4332 5.91342 10.2355 5.83341 9.99935 5.83341C9.76324 5.83341 9.56546 5.91342 9.40602 6.07342C9.24657 6.23342 9.16657 6.43119 9.16602 6.66675C9.16546 6.9023 9.24546 7.10036 9.40602 7.26092C9.56657 7.42147 9.76435 7.50119 9.99935 7.50008ZM9.99935 18.3334C8.84657 18.3334 7.76324 18.1145 6.74935 17.6767C5.73546 17.239 4.85352 16.6454 4.10352 15.8959C3.35352 15.1465 2.75991 14.2645 2.32268 13.2501C1.88546 12.2356 1.66657 11.1523 1.66602 10.0001C1.66546 8.84786 1.88435 7.76453 2.32268 6.75008C2.76102 5.73564 3.35463 4.85369 4.10352 4.10425C4.85241 3.3548 5.73435 2.76119 6.74935 2.32341C7.76435 1.88564 8.84768 1.66675 9.99935 1.66675C11.151 1.66675 12.2343 1.88564 13.2493 2.32341C14.2643 2.76119 15.1463 3.3548 15.8952 4.10425C16.6441 4.85369 17.238 5.73564 17.6768 6.75008C18.1157 7.76453 18.3344 8.84786 18.3327 10.0001C18.331 11.1523 18.1121 12.2356 17.676 13.2501C17.2399 14.2645 16.6463 15.1465 15.8952 15.8959C15.1441 16.6454 14.2621 17.2392 13.2493 17.6776C12.2366 18.1159 11.1532 18.3345 9.99935 18.3334ZM9.99935 16.6667C11.8605 16.6667 13.4368 16.0209 14.7285 14.7292C16.0202 13.4376 16.666 11.8612 16.666 10.0001C16.666 8.13897 16.0202 6.56258 14.7285 5.27091C13.4368 3.97925 11.8605 3.33341 9.99935 3.33341C8.13824 3.33341 6.56185 3.97925 5.27018 5.27091C3.97852 6.56258 3.33268 8.13897 3.33268 10.0001C3.33268 11.8612 3.97852 13.4376 5.27018 14.7292C6.56185 16.0209 8.13824 16.6667 9.99935 16.6667Z" fill="currentColor"></path>
  </symbol>
  <symbol fill="none" xmlns="http://www.w3.org/2000/svg" viewBox="0 0 11 13" id="ic_video_play">
    <path d="M0 0.846965C0 0.703037 0.0339167 0.561896 0.0980838 0.435611C0.308918 0.0270432 0.785588 -0.120598 1.16417 0.106899L10.5967 5.75999C10.7251 5.83706 10.8305 5.95128 10.9011 6.08963C11.1119 6.4982 10.9744 7.01355 10.5967 7.24012L1.16417 12.8932C1.04913 12.9628 0.917725 12.9996 0.783754 13C0.351085 13 0 12.6211 0 12.1541V0.846965Z" fill="currentColor"></path>
  </symbol>
</svg>